<svg xmlns="http://www.w3.org/2000/svg" version="1.1" xmlns:xlink="http://www.w3.org/1999/xlink" xmlns:svgjs="http://svgjs.dev/svgjs" width="1500" height="1500" viewBox="0 0 1500 1500"><rect width="1500" height="1500" fill="#ffffff"></rect><g transform="matrix(0.6666666666666666,0,0,0.6666666666666666,249.50000000000006,249.50000000000006)"><svg viewBox="0 0 280 280" data-background-color="#ffffff" preserveAspectRatio="xMidYMid meet" height="1500" width="1500" xmlns="http://www.w3.org/2000/svg" xmlns:xlink="http://www.w3.org/1999/xlink"><g id="tight-bounds" transform="matrix(1,0,0,1,0.13999999999998636,0.13999999999998636)"><svg viewBox="0 0 279.72 279.72" height="279.72" width="279.72"><g><svg viewBox="0 0 279.72 279.72" height="279.72" width="279.72"><g><svg viewBox="0 0 279.72 279.72" height="279.72" width="279.72"><g id="textblocktransform"><svg viewBox="0 0 279.72 279.72" height="279.72" width="279.72" id="textblock"><g><svg viewBox="0 0 279.72 279.72" height="279.72" width="279.72"><g transform="matrix(1,0,0,1,73.92936372216631,91.29439212082487)"><svg viewBox="0 0 131.8612725556674 97.1312157583503" height="97.1312157583503" width="131.8612725556674"><g id="icon-0"><svg xmlns="http://www.w3.org/2000/svg" xmlns:xlink="http://www.w3.org/1999/xlink" version="1.1" x="0" y="0" viewBox="3.3 15.6 93.4 68.80000000000001" enable-background="new 0 0 100 100" xml:space="preserve" height="97.1312157583503" width="131.8612725556674" class="icon-jxe-0" data-fill-palette-color="accent" id="jxe-0"><path d="M69 41.5C69 38.6 66.8 36.3 64 36V29.6C64 21.9 57.7 15.6 50 15.6S36 21.9 36 29.6V36C33.2 36.3 31 38.6 31 41.5V58.8C31 61.8 33.5 64.3 36.5 64.3H63.4C66.4 64.3 68.9 61.8 68.9 58.8V41.5zM50 19.9C55.4 19.9 59.8 24.3 59.8 29.7V36H40.2V29.6C40.2 24.2 44.6 19.9 50 19.9M64.7 58.8C64.7 59.5 64.1 60.1 63.4 60.1H36.5C35.8 60.1 35.2 59.5 35.2 58.8V41.5C35.2 40.8 35.8 40.2 36.5 40.2H63.4C64.1 40.2 64.7 40.8 64.7 41.5zM53.3 48.1C53.3 49.2 52.8 50.1 52 50.8 51.9 50.9 51.9 50.9 51.9 51V54.7C51.9 55.4 51.6 56.1 51 56.4 50.7 56.6 50.4 56.6 50.1 56.6 49.1 56.6 48.2 55.8 48.2 54.7V51C48.2 50.9 48.2 50.9 48.1 50.8 46.8 49.9 46.4 48.2 47 46.8 47.5 45.6 48.7 44.8 50 44.8 50.2 44.8 50.4 44.8 50.6 44.9 52.2 45.2 53.3 46.5 53.3 48.1M25.6 48.8H16.4C15.5 46.2 13 44.2 10.1 44.2A6.7 6.7 0 0 0 10.1 57.6C13 57.6 15.5 55.7 16.4 53H25.6C26.8 53 27.7 52 27.7 50.9 27.7 49.7 26.7 48.8 25.6 48.8M10 53.3C8.7 53.3 7.6 52.2 7.6 50.9S8.7 48.5 10 48.5 12.4 49.6 12.4 50.9 11.3 53.3 10 53.3M25.6 38.7H15.1C13.4 38.7 12.1 37.4 12.1 35.7V30.4C14.7 29.5 16.7 27 16.7 24.1A6.7 6.7 0 0 0 3.3 24.1C3.3 27 5.2 29.5 7.9 30.4V35.7C7.9 39.7 11.1 42.9 15.1 42.9H25.5C26.7 42.9 27.6 41.9 27.6 40.8 27.7 39.6 26.7 38.7 25.6 38.7M10 21.6C11.3 21.6 12.4 22.7 12.4 24S11.3 26.4 10 26.4 7.6 25.3 7.6 24 8.7 21.6 10 21.6M15.1 63.1H25.5C26.7 63.1 27.6 62.1 27.6 61 27.6 59.8 26.6 58.9 25.5 58.9H15.1C11.1 58.9 7.9 62.1 7.9 66.1V71.4C5.3 72.3 3.3 74.8 3.3 77.7A6.7 6.7 0 0 0 16.7 77.7C16.7 74.8 14.8 72.3 12.1 71.4V66.1C12.1 64.4 13.5 63.1 15.1 63.1M10 80.1C8.7 80.1 7.6 79 7.6 77.7S8.7 75.3 10 75.3 12.4 76.4 12.4 77.7 11.3 80.1 10 80.1M90 44.2C87.1 44.2 84.6 46.1 83.7 48.8H74.5C73.3 48.8 72.4 49.8 72.4 50.9 72.4 52.1 73.4 53 74.5 53H83.7C84.6 55.6 87.1 57.6 90 57.6A6.7 6.7 0 0 0 90 44.2M90 53.3C88.7 53.3 87.6 52.2 87.6 50.9S88.7 48.5 90 48.5 92.4 49.6 92.4 50.9 91.3 53.3 90 53.3M83.3 77.7A6.7 6.7 0 0 0 96.7 77.7C96.7 74.8 94.8 72.3 92.1 71.4V66.1C92.1 62.1 88.9 58.9 84.9 58.9H74.4C73.2 58.9 72.3 59.9 72.3 61 72.3 62.2 73.3 63.1 74.4 63.1H84.8C86.5 63.1 87.8 64.4 87.8 66.1V71.4C85.2 72.3 83.3 74.8 83.3 77.7M90 80.1C88.7 80.1 87.6 79 87.6 77.7S88.7 75.3 90 75.3 92.4 76.4 92.4 77.7 91.3 80.1 90 80.1M90 17.4C86.3 17.4 83.3 20.4 83.3 24.1 83.3 27 85.2 29.5 87.9 30.4V35.7C87.9 37.4 86.6 38.7 84.9 38.7H74.4C73.2 38.7 72.3 39.7 72.3 40.8 72.3 42 73.3 42.9 74.4 42.9H84.8C88.8 42.9 92 39.7 92 35.7V30.4C94.6 29.5 96.6 27 96.6 24.1 96.7 20.4 93.7 17.4 90 17.4M90 26.5C88.7 26.5 87.6 25.4 87.6 24.1S88.7 21.7 90 21.7 92.4 22.8 92.4 24.1 91.3 26.5 90 26.5" fill="#000000" data-fill-palette-color="accent"></path></svg></g></svg></g><g id="text-0"><path d="M34.795 90.187l-6.789 19.367-26.777-9.386 6.735-19.214 3.446 1.208-5.312 15.155 7.717 2.705 3.657-10.436 3.456 1.212-3.657 10.435 8.702 3.051 5.366-15.309z" fill="#000000" data-fill-palette-color="primary"></path><path d="M51.855 64.526l-2.328 3.373-11.614-8.015c-1.291-0.891-2.588-1.239-3.889-1.045-1.303 0.185-2.362 0.868-3.176 2.049v0c-0.941 1.364-1.278 2.918-1.012 4.663 0.257 1.747 1.22 3.656 2.888 5.728v0l-4.151-2.076c-1.266-1.893-1.882-3.793-1.848-5.7 0.031-1.902 0.578-3.624 1.642-5.165v0c0.953-1.38 2.075-2.376 3.369-2.988 1.289-0.606 2.652-0.824 4.088-0.655 1.431 0.166 2.858 0.74 4.283 1.723v0zM42.803 77.643l-2.328 3.373-18.402-12.7 2.212-3.206 4.265 2.697z" fill="#000000" data-fill-palette-color="primary"></path><path d="M68.528 50.464v0c-1.776 1.471-3.625 2.378-5.545 2.721-1.915 0.339-3.785 0.127-5.611-0.636-1.827-0.753-3.492-2.039-4.997-3.856v0c-1.54-1.86-2.499-3.766-2.878-5.718-0.388-1.953-0.223-3.833 0.495-5.638 0.723-1.81 1.962-3.442 3.717-4.896v0c1.396-1.156 2.863-1.94 4.4-2.353 1.543-0.417 3.053-0.443 4.532-0.078 1.474 0.36 2.799 1.142 3.973 2.348v0l-3.157 2.614c-1.133-1.029-2.377-1.518-3.731-1.468-1.354 0.041-2.635 0.562-3.843 1.562v0c-1.13 0.936-1.899 2.007-2.305 3.213-0.411 1.201-0.46 2.462-0.147 3.783 0.318 1.317 1.031 2.645 2.139 3.984v0c1.643 1.985 3.439 3.119 5.387 3.404 1.942 0.288 3.739-0.251 5.39-1.619v0c0.75-0.621 1.327-1.345 1.732-2.171 0.404-0.827 0.607-1.706 0.608-2.638 0.006-0.936-0.209-1.838-0.646-2.705v0l3.188-2.64c0.861 1.464 1.306 2.966 1.334 4.506 0.032 1.545-0.3 3.036-0.997 4.475-0.692 1.434-1.705 2.702-3.038 3.806z" fill="#000000" data-fill-palette-color="primary"></path><path d="M98.451 18.589l-3.722 1.715-1.125-2.441c-0.487-1.056-1.203-1.762-2.148-2.116-0.942-0.363-2.014-0.267-3.219 0.289v0c-1.529 0.705-2.631 1.909-3.305 3.612-0.677 1.697-0.836 3.882-0.476 6.553v0l-2.253-3.53c-0.105-1.65 0.016-3.124 0.363-4.423 0.344-1.29 0.915-2.41 1.713-3.359 0.805-0.952 1.822-1.711 3.05-2.277v0c2.045-0.943 3.976-1.125 5.791-0.547 1.818 0.584 3.22 1.945 4.206 4.082v0zM90.066 36.506l-3.731 1.72-9.36-20.305 3.501-1.614 2.358 4.509z" fill="#000000" data-fill-palette-color="primary"></path><path d="M114.456 5.333l6.29 10.227 2.925 5.188 1.251-5.866 2.963-11.596 4.212-0.642-6.558 25.71c-0.405 1.519-0.899 2.74-1.484 3.664-0.584 0.924-1.292 1.62-2.124 2.089-0.838 0.47-1.846 0.794-3.022 0.974v0l-3.942 0.601-0.501-3.29 3.66-0.558c0.695-0.106 1.267-0.35 1.715-0.733 0.455-0.384 0.836-0.911 1.145-1.58 0.309-0.663 0.591-1.506 0.845-2.531v0l0.382-1.536-11.979-19.477z" fill="#000000" data-fill-palette-color="primary"></path><path d="M159.584 3.902v0c1.989 0.23 3.675 0.922 5.06 2.077 1.378 1.153 2.396 2.657 3.053 4.509 0.665 1.847 0.866 3.903 0.604 6.167v0c-0.259 2.237-0.922 4.179-1.991 5.825-1.063 1.654-2.397 2.892-4.004 3.714-1.613 0.821-3.414 1.117-5.403 0.887v0c-1.512-0.175-2.857-0.644-4.035-1.406-1.178-0.763-2.111-1.732-2.799-2.908v0l-1.177 10.179-4.071-0.471 3.4-29.397 3.87 0.448-0.229 3.037c0.937-0.981 2.074-1.714 3.41-2.199 1.336-0.485 2.773-0.639 4.312-0.462zM156.404 23.541v0c1.377 0.159 2.617-0.051 3.718-0.632 1.102-0.581 2.009-1.449 2.722-2.606 0.707-1.164 1.152-2.539 1.335-4.125v0c0.186-1.612 0.069-3.066-0.353-4.361-0.43-1.289-1.115-2.335-2.058-3.138-0.941-0.81-2.1-1.295-3.477-1.454v0c-1.397-0.162-2.713 0.091-3.948 0.759-1.241 0.66-2.209 1.644-2.905 2.952v0l-0.851 7.357c0.376 1.46 1.092 2.659 2.147 3.598 1.049 0.938 2.272 1.488 3.669 1.65z" fill="#000000" data-fill-palette-color="primary"></path><path d="M185.878 35.373v0c-2.033-0.818-3.648-1.921-4.847-3.307-1.192-1.384-1.908-2.974-2.148-4.77-0.242-1.789 0.058-3.728 0.899-5.817v0l3.953 1.592c-0.831 2.064-0.929 3.873-0.294 5.426 0.629 1.551 1.885 2.706 3.768 3.464v0c1.612 0.649 3.057 0.801 4.333 0.455 1.283-0.344 2.192-1.181 2.728-2.511v0c0.366-0.91 0.388-1.75 0.065-2.522-0.317-0.769-0.851-1.509-1.6-2.219-0.749-0.71-1.599-1.417-2.548-2.12-0.943-0.7-1.879-1.435-2.81-2.203-0.934-0.777-1.74-1.608-2.418-2.494-0.679-0.886-1.111-1.876-1.297-2.972-0.186-1.096-0.005-2.324 0.543-3.685v0c0.576-1.43 1.473-2.553 2.691-3.368 1.215-0.809 2.635-1.257 4.26-1.347 1.632-0.087 3.376 0.244 5.233 0.992v0c1.813 0.73 3.301 1.716 4.464 2.956 1.169 1.244 1.941 2.648 2.317 4.214 0.373 1.572 0.229 3.216-0.434 4.933v0l-3.99-1.607c0.379-1.014 0.452-1.983 0.22-2.908-0.226-0.922-0.68-1.75-1.362-2.484-0.684-0.727-1.544-1.3-2.579-1.716v0c-1.481-0.596-2.828-0.727-4.042-0.392-1.218 0.326-2.069 1.092-2.554 2.296v0c-0.344 0.853-0.345 1.644-0.004 2.372 0.337 0.719 0.888 1.415 1.653 2.087 0.765 0.672 1.63 1.356 2.597 2.052 0.96 0.693 1.899 1.421 2.817 2.184 0.924 0.766 1.718 1.61 2.381 2.534 0.661 0.93 1.072 1.974 1.233 3.132 0.161 1.158-0.053 2.468-0.642 3.93v0c-0.626 1.556-1.584 2.738-2.872 3.546-1.29 0.815-2.78 1.246-4.469 1.295-1.683 0.051-3.431-0.288-5.245-1.018z" fill="#000000" data-fill-palette-color="primary"></path><path d="M220.248 56.663l-3.115-2.356 2.937-4.152 5.765-7.622c0.963-1.273 1.302-2.585 1.018-3.936-0.28-1.357-1.145-2.584-2.596-3.681v0c-1.402-1.061-2.789-1.605-4.159-1.632-1.371-0.037-2.525 0.473-3.459 1.53v0l-3.204-2.423c1.071-1.191 2.303-1.968 3.696-2.331 1.389-0.357 2.861-0.329 4.414 0.083 1.559 0.416 3.116 1.212 4.67 2.387v0c1.602 1.212 2.786 2.523 3.55 3.933 0.771 1.414 1.097 2.861 0.979 4.339-0.114 1.474-0.71 2.923-1.787 4.347v0zM210.391 49.817v0c-1.165-0.881-2.034-1.869-2.605-2.963-0.566-1.09-0.8-2.216-0.701-3.379 0.104-1.168 0.555-2.281 1.355-3.338v0c1.391-1.839 3.177-2.732 5.357-2.677 2.186 0.059 4.554 1.053 7.106 2.984v0l4.571 3.457-1.836 2.428-4.709-3.562c-1.467-1.11-2.828-1.698-4.083-1.766-1.264-0.066-2.28 0.408-3.047 1.422v0c-0.636 0.841-0.835 1.726-0.595 2.654 0.234 0.923 0.858 1.769 1.872 2.536v0c1.3 0.983 2.717 1.504 4.251 1.561 1.534 0.058 3.081-0.29 4.642-1.042v0l-1.455 2.664c-1.599 0.936-3.258 1.331-4.978 1.183-1.72-0.148-3.435-0.868-5.145-2.162z" fill="#000000" data-fill-palette-color="primary"></path><path d="M234.663 74.309l-2.492-3.266 19.783-15.097c1.097-0.837 2.21-1.363 3.338-1.578 1.134-0.219 2.246-0.106 3.335 0.34 1.093 0.451 2.09 1.268 2.993 2.45v0l4.043 5.299-2.653 2.025-3.305-4.331c-0.443-0.581-0.925-1.056-1.444-1.425-0.52-0.369-1.081-0.536-1.685-0.501-0.603 0.035-1.281 0.339-2.033 0.914v0zM254.05 68.359l-9.964-13.057 2.653-2.025 9.964 13.057zM240.085 81.414l-12.229-16.025 2.654-2.024 12.228 16.025z" fill="#000000" data-fill-palette-color="primary"></path><path d="M248.201 101.167v0c-0.849-2.137-1.15-4.16-0.904-6.07 0.248-1.903 1.022-3.593 2.32-5.069 1.29-1.48 3.069-2.671 5.338-3.572v0c2.269-0.901 4.377-1.247 6.323-1.038 1.95 0.201 3.664 0.917 5.143 2.149 1.481 1.238 2.657 2.951 3.525 5.138v0c1.331 3.35 1.398 6.213 0.202 8.587-1.205 2.371-3.46 4.096-6.764 5.176v0l-6.812-17.15 2.89-1.105 5.217 13.243c1.293-0.63 2.13-1.636 2.513-3.017 0.391-1.378 0.266-2.875-0.376-4.491v0c-0.859-2.162-2.2-3.551-4.023-4.165-1.82-0.624-3.977-0.44-6.472 0.551v0c-1.483 0.589-2.698 1.37-3.644 2.342-0.939 0.97-1.527 2.073-1.764 3.31-0.239 1.23-0.084 2.537 0.466 3.919v0c0.652 1.641 1.584 2.853 2.798 3.637 1.216 0.79 2.541 1.047 3.973 0.769v0l1.513 3.809c-2.468 0.602-4.721 0.289-6.759-0.939-2.034-1.237-3.602-3.241-4.703-6.014z" fill="#000000" data-fill-palette-color="primary"></path><path d="M0 142.249c0-6.716 5.445-12.161 12.161-12.161 6.716 0 12.161 5.445 12.161 12.161 0 6.716-5.445 12.161-12.161 12.161-6.716 0-12.161-5.445-12.161-12.161z" fill="#000000" data-fill-palette-color="primary"></path><path d="M255.399 142.249c0-6.716 5.445-12.161 12.16-12.161 6.716 0 12.161 5.445 12.161 12.161 0 6.716-5.445 12.161-12.161 12.161-6.716 0-12.161-5.445-12.16-12.161z" fill="#000000" data-fill-palette-color="primary"></path></g><g id="text-1"><path d="M12.345 184.85v0c-0.329-1.066-0.432-2.064-0.308-2.995 0.119-0.921 0.45-1.707 0.994-2.355 0.549-0.651 1.297-1.129 2.243-1.435v0l0.643 2.084c-0.892 0.275-1.504 0.793-1.835 1.554-0.327 0.752-0.339 1.619-0.037 2.601v0c0.257 0.834 0.622 1.454 1.094 1.86 0.472 0.406 0.976 0.527 1.513 0.362v0c0.427-0.132 0.722-0.378 0.886-0.741 0.171-0.364 0.258-0.805 0.261-1.322-0.001-0.509-0.034-1.062-0.097-1.658-0.064-0.596-0.104-1.199-0.123-1.81-0.018-0.61 0.019-1.188 0.113-1.733 0.096-0.539 0.305-1.018 0.629-1.436 0.315-0.423 0.803-0.736 1.462-0.94v0c0.685-0.211 1.357-0.203 2.015 0.027 0.652 0.231 1.244 0.66 1.778 1.288 0.527 0.63 0.944 1.443 1.251 2.438v0c0.464 1.506 0.492 2.824 0.084 3.955-0.417 1.127-1.219 1.912-2.406 2.356v0l-0.643-2.084c0.686-0.254 1.14-0.709 1.363-1.365 0.222-0.656 0.194-1.436-0.085-2.342v0c-0.261-0.847-0.628-1.441-1.102-1.783-0.474-0.342-0.966-0.435-1.477-0.277v0c-0.394 0.122-0.66 0.363-0.796 0.723-0.137 0.361-0.197 0.797-0.18 1.308 0.021 0.503 0.073 1.05 0.155 1.64 0.076 0.592 0.128 1.196 0.155 1.811 0.031 0.606-0.011 1.182-0.125 1.726-0.115 0.545-0.344 1.03-0.688 1.454-0.352 0.42-0.88 0.739-1.584 0.956v0c-1.125 0.347-2.15 0.164-3.078-0.547-0.919-0.707-1.611-1.814-2.075-3.32z" fill="#000000" data-fill-palette-color="secondary"></path><path d="M18.942 201.122v0c-0.553-1.182-0.791-2.314-0.714-3.395 0.077-1.081 0.455-2.061 1.135-2.938 0.683-0.872 1.646-1.598 2.89-2.18v0c1.25-0.584 2.426-0.854 3.53-0.81 1.106 0.05 2.095 0.402 2.967 1.054 0.876 0.643 1.595 1.569 2.16 2.776v0c0.862 1.844 0.995 3.454 0.399 4.83-0.596 1.376-1.808 2.424-3.637 3.145v0l-4.412-9.439 1.59-0.72 3.384 7.287c0.709-0.399 1.149-0.992 1.317-1.781 0.175-0.791 0.055-1.631-0.36-2.519v0c-0.558-1.195-1.363-1.935-2.415-2.219-1.045-0.288-2.254-0.111-3.626 0.53v0c-0.815 0.381-1.471 0.863-1.967 1.446-0.499 0.577-0.798 1.216-0.895 1.919-0.091 0.7 0.042 1.432 0.4 2.198v0c0.421 0.901 0.986 1.551 1.696 1.951 0.712 0.406 1.468 0.505 2.266 0.296v0l0.984 2.104c-1.373 0.418-2.653 0.314-3.84-0.31-1.188-0.624-2.138-1.699-2.852-3.225z" fill="#000000" data-fill-palette-color="secondary"></path><path d="M27.765 216.738v0c-0.699-1.094-1.077-2.189-1.135-3.284-0.061-1.101 0.184-2.136 0.736-3.106 0.555-0.965 1.394-1.806 2.517-2.523v0c1.146-0.732 2.278-1.139 3.398-1.22 1.12-0.081 2.16 0.141 3.122 0.665 0.965 0.531 1.794 1.338 2.485 2.421v0c0.55 0.861 0.89 1.739 1.021 2.634 0.121 0.894 0.031 1.738-0.271 2.534-0.305 0.805-0.836 1.493-1.594 2.065v0l-1.245-1.949c0.653-0.561 1.012-1.224 1.077-1.988 0.069-0.758-0.135-1.511-0.612-2.258v0c-0.444-0.695-0.989-1.202-1.633-1.521-0.647-0.309-1.349-0.422-2.107-0.339-0.763 0.086-1.558 0.394-2.385 0.922v0c-1.225 0.783-1.985 1.71-2.28 2.781-0.295 1.071-0.118 2.114 0.53 3.128v0c0.299 0.467 0.667 0.842 1.104 1.125 0.432 0.286 0.909 0.462 1.433 0.529 0.524 0.066 1.044 0.007 1.56-0.178v0l1.256 1.966c-0.878 0.384-1.75 0.533-2.617 0.445-0.865-0.098-1.677-0.389-2.437-0.875-0.754-0.489-1.395-1.147-1.923-1.974z" fill="#000000" data-fill-palette-color="secondary"></path><path d="M44.331 217.846l1.485 1.773-6.105 5.114c-0.679 0.569-1.063 1.222-1.152 1.958-0.099 0.735 0.113 1.414 0.634 2.036v0c0.599 0.715 1.395 1.134 2.388 1.255 0.988 0.116 2.171-0.12 3.549-0.709v0l-1.749 1.941c-1.222 0.406-2.349 0.455-3.383 0.148-1.03-0.302-1.883-0.858-2.561-1.666v0c-0.608-0.726-0.98-1.486-1.116-2.281-0.136-0.795-0.053-1.57 0.248-2.326 0.306-0.751 0.835-1.441 1.587-2.07v0zM50.103 224.735l1.492 1.781-9.674 8.105-1.414-1.688 2.107-1.924z" fill="#000000" data-fill-palette-color="secondary"></path><path d="M59.896 241.62l-1.703-1.565 1.029-1.12c0.444-0.483 0.656-1.009 0.637-1.578-0.019-0.569-0.306-1.107-0.859-1.615v0c-0.697-0.64-1.563-0.953-2.596-0.938-1.038 0.02-2.208 0.415-3.511 1.183v0l1.339-1.938c0.839-0.414 1.632-0.673 2.38-0.776 0.747-0.104 1.455-0.05 2.125 0.161 0.67 0.211 1.286 0.575 1.848 1.092v0c0.936 0.86 1.451 1.824 1.545 2.892 0.094 1.078-0.308 2.105-1.204 3.081v0zM48.733 241.147l-1.704-1.565 8.537-9.294 1.606 1.475-1.845 2.204z" fill="#000000" data-fill-palette-color="secondary"></path><path d="M64.754 254.185v0c-1.074-0.742-1.85-1.599-2.329-2.571-0.479-0.972-0.646-2.009-0.503-3.11 0.15-1.097 0.615-2.21 1.395-3.339v0c0.784-1.135 1.664-1.962 2.639-2.48 0.98-0.515 2.012-0.71 3.094-0.587 1.081 0.114 2.169 0.549 3.265 1.307v0c1.675 1.157 2.602 2.48 2.782 3.969 0.18 1.489-0.338 3.005-1.554 4.55v0l-8.571-5.924 1.009-1.424 6.598 4.585c0.411-0.702 0.491-1.436 0.24-2.202-0.248-0.771-0.775-1.436-1.582-1.994v0c-1.085-0.75-2.153-0.982-3.205-0.698-1.048 0.279-2.002 1.042-2.864 2.288v0c-0.511 0.74-0.834 1.487-0.968 2.241-0.14 0.75-0.075 1.453 0.195 2.108 0.274 0.65 0.759 1.215 1.455 1.696v0c0.818 0.565 1.634 0.842 2.448 0.829 0.82-0.009 1.522-0.305 2.106-0.888v0l1.911 1.321c-0.974 1.053-2.132 1.61-3.472 1.669-1.34 0.06-2.703-0.389-4.089-1.346z" fill="#000000" data-fill-palette-color="secondary"></path><path d="M96.989 256.475l0.405 6.762 0.07 3.36 2.185-2.584 4.56-4.983 2.277 0.805-10.117 11.045c-0.602 0.648-1.172 1.124-1.711 1.429-0.538 0.305-1.079 0.465-1.622 0.48-0.535 0.012-1.121-0.095-1.759-0.321v0l-2.123-0.751 0.629-1.779 1.97 0.697c0.376 0.133 0.727 0.164 1.054 0.093 0.326-0.071 0.656-0.231 0.987-0.479 0.332-0.248 0.697-0.593 1.097-1.032v0l0.6-0.66-0.779-12.887z" fill="#000000" data-fill-palette-color="secondary"></path><path d="M113.36 274.53v0c-1.271-0.267-2.311-0.759-3.121-1.475-0.817-0.718-1.368-1.611-1.655-2.681-0.293-1.071-0.301-2.265-0.025-3.581v0c0.284-1.35 0.774-2.446 1.469-3.289 0.69-0.85 1.554-1.439 2.59-1.767 1.03-0.329 2.187-0.359 3.471-0.089v0c1.919 0.404 3.305 1.293 4.156 2.667 0.851 1.375 1.066 3.065 0.645 5.07v0c-0.277 1.317-0.765 2.407-1.465 3.269-0.693 0.863-1.554 1.46-2.584 1.789-1.037 0.328-2.197 0.357-3.481 0.087zM113.776 272.648v0c1.198 0.252 2.23 0.044 3.096-0.624 0.873-0.667 1.457-1.705 1.754-3.115v0c0.299-1.423 0.183-2.612-0.349-3.567-0.525-0.954-1.387-1.556-2.585-1.808v0c-1.211-0.255-2.246-0.051-3.104 0.612-0.858 0.663-1.437 1.706-1.735 3.129v0c-0.296 1.41-0.186 2.594 0.331 3.553 0.517 0.959 1.381 1.566 2.592 1.82z" fill="#000000" data-fill-palette-color="secondary"></path><path d="M126.133 263.591l2.306 0.185-0.638 7.938c-0.071 0.883 0.125 1.615 0.587 2.195 0.455 0.586 1.087 0.912 1.896 0.977v0c0.93 0.075 1.787-0.199 2.57-0.822 0.776-0.623 1.437-1.632 1.983-3.026v0l0.157 2.608c-0.568 1.155-1.324 1.994-2.268 2.514-0.938 0.522-1.932 0.74-2.983 0.657v0c-0.944-0.076-1.747-0.344-2.409-0.805-0.662-0.46-1.156-1.063-1.483-1.808-0.32-0.745-0.441-1.606-0.363-2.584v0zM135.093 264.311l2.315 0.185-1.01 12.58-2.194-0.176 0.107-2.851z" fill="#000000" data-fill-palette-color="secondary"></path><path d="M153.996 269.18l-2.31 0.116-0.076-1.52c-0.033-0.655-0.259-1.175-0.678-1.561-0.419-0.385-1.003-0.559-1.753-0.521v0c-0.946 0.047-1.776 0.445-2.489 1.191-0.714 0.754-1.254 1.864-1.621 3.332v0l-0.441-2.314c0.294-0.888 0.666-1.635 1.117-2.24 0.45-0.605 0.986-1.072 1.605-1.401 0.62-0.329 1.312-0.513 2.075-0.551v0c1.27-0.064 2.318 0.246 3.145 0.929 0.834 0.69 1.284 1.696 1.35 3.02v0zM145.826 276.802l-2.31 0.116-0.632-12.605 2.178-0.109 0.276 2.861z" fill="#000000" data-fill-palette-color="secondary"></path><path d="M179.885 257.218v0c1.072-0.355 2.1-0.403 3.084-0.144 0.979 0.267 1.856 0.796 2.63 1.587 0.781 0.789 1.374 1.793 1.778 3.013v0c0.4 1.207 0.521 2.36 0.364 3.459-0.15 1.097-0.538 2.045-1.164 2.843-0.63 0.807-1.482 1.388-2.554 1.743v0c-0.815 0.27-1.615 0.349-2.4 0.239-0.785-0.111-1.491-0.383-2.119-0.817v0l1.817 5.49-2.205 0.73-5.25-15.862 2.089-0.692 0.607 1.605c0.245-0.722 0.652-1.366 1.22-1.931 0.574-0.568 1.276-0.989 2.103-1.263zM182.929 268.029v0c0.738-0.244 1.321-0.647 1.748-1.209 0.427-0.562 0.685-1.224 0.774-1.987 0.083-0.761-0.017-1.569-0.299-2.423v0c-0.289-0.873-0.694-1.591-1.215-2.152-0.527-0.559-1.127-0.931-1.8-1.114-0.675-0.19-1.382-0.162-2.121 0.082v0c-0.758 0.251-1.373 0.693-1.847 1.328-0.476 0.628-0.735 1.362-0.778 2.202v0l1.31 3.958c0.54 0.662 1.19 1.109 1.951 1.342 0.761 0.233 1.52 0.224 2.277-0.027z" fill="#000000" data-fill-palette-color="secondary"></path><path d="M204.504 260.508l-1.984 0.955-1.328-2.547-2.337-4.854c-0.393-0.817-0.966-1.329-1.719-1.536-0.75-0.202-1.588-0.08-2.515 0.366v0c-0.896 0.431-1.53 0.985-1.903 1.66-0.364 0.678-0.4 1.39-0.109 2.135v0l-2.048 0.986c-0.326-0.849-0.399-1.67-0.217-2.462 0.175-0.79 0.57-1.521 1.185-2.193 0.606-0.675 1.406-1.251 2.399-1.729v0c1.018-0.49 1.982-0.748 2.893-0.774 0.908-0.017 1.715 0.195 2.422 0.635 0.713 0.437 1.289 1.11 1.726 2.018v0zM198.526 263.69v0c-0.743 0.358-1.463 0.539-2.159 0.544-0.696 0.005-1.324-0.169-1.884-0.522-0.557-0.347-0.999-0.859-1.325-1.535v0c-0.563-1.17-0.551-2.298 0.037-3.385 0.591-1.08 1.7-2.012 3.326-2.795v0l2.916-1.404 0.748 1.554-2.998 1.443c-0.938 0.452-1.588 0.982-1.947 1.591-0.357 0.615-0.379 1.248-0.065 1.9v0c0.258 0.536 0.65 0.866 1.174 0.989 0.528 0.114 1.114 0.015 1.761-0.296v0c0.829-0.399 1.456-0.975 1.881-1.728 0.423-0.759 0.646-1.628 0.67-2.608v0l0.968 1.425c0.057 1.038-0.173 1.971-0.691 2.799-0.524 0.83-1.328 1.506-2.412 2.028z" fill="#000000" data-fill-palette-color="secondary"></path><path d="M215.252 254.047v0c-0.934 0.61-1.865 0.984-2.793 1.122-0.919 0.14-1.765 0.038-2.538-0.305-0.777-0.349-1.443-0.935-1.999-1.761v0l1.826-1.192c0.51 0.781 1.177 1.227 2 1.335 0.813 0.107 1.65-0.121 2.51-0.683v0c0.73-0.477 1.226-0.999 1.487-1.565 0.26-0.566 0.237-1.084-0.07-1.553v0c-0.244-0.374-0.563-0.59-0.957-0.648-0.397-0.064-0.845-0.026-1.343 0.114-0.489 0.142-1.011 0.325-1.567 0.551-0.555 0.226-1.124 0.431-1.705 0.617-0.581 0.186-1.147 0.309-1.697 0.37-0.545 0.057-1.063-0.013-1.554-0.209-0.493-0.187-0.929-0.569-1.306-1.146v0c-0.392-0.6-0.569-1.248-0.531-1.943 0.042-0.69 0.291-1.378 0.748-2.064 0.46-0.68 1.126-1.305 1.998-1.876v0c1.319-0.862 2.579-1.252 3.779-1.171 1.198 0.09 2.174 0.644 2.928 1.662v0l-1.826 1.193c-0.433-0.589-0.996-0.9-1.688-0.933-0.692-0.033-1.434 0.21-2.227 0.727v0c-0.742 0.485-1.212 1.002-1.41 1.552-0.198 0.55-0.151 1.048 0.14 1.495v0c0.226 0.345 0.531 0.534 0.915 0.566 0.384 0.032 0.82-0.031 1.308-0.188 0.478-0.159 0.989-0.359 1.533-0.602 0.548-0.237 1.114-0.453 1.697-0.648 0.574-0.197 1.139-0.316 1.695-0.356 0.556-0.04 1.085 0.047 1.587 0.26 0.501 0.222 0.953 0.642 1.356 1.259v0c0.644 0.985 0.751 2.022 0.323 3.109-0.426 1.078-1.299 2.049-2.619 2.911z" fill="#000000" data-fill-palette-color="secondary"></path><path d="M229.227 243.143v0c-0.846 0.728-1.719 1.222-2.621 1.48-0.892 0.26-1.744 0.27-2.556 0.033-0.816-0.243-1.554-0.737-2.213-1.482v0l1.652-1.423c0.609 0.707 1.328 1.061 2.158 1.06 0.82-0.001 1.62-0.337 2.399-1.008v0c0.661-0.569 1.083-1.152 1.267-1.747 0.183-0.595 0.092-1.106-0.274-1.531v0c-0.291-0.338-0.636-0.51-1.034-0.516-0.402-0.011-0.841 0.086-1.316 0.29-0.466 0.205-0.96 0.456-1.481 0.753-0.521 0.297-1.057 0.576-1.609 0.837-0.552 0.261-1.096 0.458-1.633 0.59-0.532 0.128-1.055 0.128-1.568-0.002-0.514-0.12-0.996-0.441-1.446-0.964v0c-0.468-0.543-0.729-1.162-0.783-1.856-0.049-0.689 0.107-1.404 0.47-2.145 0.367-0.735 0.944-1.443 1.733-2.122v0c1.194-1.028 2.391-1.582 3.591-1.66 1.199-0.069 2.24 0.352 3.122 1.261v0l-1.653 1.424c-0.507-0.527-1.106-0.761-1.796-0.703-0.69 0.059-1.394 0.397-2.112 1.015v0c-0.671 0.578-1.069 1.153-1.193 1.724-0.124 0.571-0.012 1.059 0.337 1.464v0c0.269 0.313 0.596 0.459 0.981 0.44 0.385-0.019 0.809-0.139 1.272-0.358 0.453-0.22 0.933-0.487 1.44-0.799 0.512-0.307 1.044-0.596 1.597-0.867 0.543-0.271 1.087-0.463 1.633-0.576 0.546-0.113 1.081-0.097 1.608 0.048 0.526 0.154 1.029 0.511 1.51 1.07v0c0.768 0.892 1.011 1.905 0.73 3.039-0.281 1.125-1.018 2.202-2.212 3.231z" fill="#000000" data-fill-palette-color="secondary"></path><path d="M239.779 232.069l-1.796 2.068-10.931-6.738 1.411-1.624 6.132 3.862 2.62 1.671-1.901-2.499-4.35-5.914 1.37-1.578 6.505 3.433 2.756 1.546-2.051-2.358-4.682-5.531 1.364-1.57 8.203 9.878-1.796 2.068-6.316-3.295-2.927-1.843 2.235 2.64z" fill="#000000" data-fill-palette-color="secondary"></path><path d="M252.055 216.547v0c-0.721 1.08-1.564 1.863-2.53 2.348-0.97 0.491-2.005 0.671-3.104 0.539-1.103-0.126-2.214-0.563-3.334-1.31v0c-1.148-0.766-1.983-1.628-2.505-2.587-0.532-0.957-0.758-1.977-0.677-3.061 0.077-1.079 0.48-2.163 1.208-3.255v0c1.089-1.631 2.429-2.587 4.022-2.865 1.593-0.279 3.241 0.15 4.946 1.288v0c1.12 0.747 1.949 1.606 2.489 2.575 0.544 0.964 0.777 1.986 0.699 3.064-0.081 1.084-0.486 2.172-1.214 3.264zM250.463 215.46v0c0.679-1.018 0.87-2.054 0.573-3.106-0.294-1.058-1.04-1.987-2.239-2.786v0c-1.21-0.807-2.356-1.141-3.441-1.004-1.081 0.133-1.96 0.708-2.64 1.727v0c-0.687 1.03-0.882 2.066-0.586 3.109 0.296 1.043 1.049 1.968 2.258 2.775v0c1.198 0.8 2.339 1.138 3.421 1.014 1.082-0.123 1.967-0.7 2.654-1.729z" fill="#000000" data-fill-palette-color="secondary"></path><path d="M256.685 192.668l-1.033 2.069-1.362-0.68c-0.587-0.293-1.151-0.352-1.692-0.176-0.541 0.176-0.98 0.599-1.315 1.271v0c-0.423 0.847-0.485 1.765-0.185 2.754 0.306 0.992 1.008 2.008 2.106 3.048v0l-2.232-0.753c-0.629-0.692-1.097-1.383-1.403-2.072-0.306-0.689-0.45-1.385-0.432-2.087 0.018-0.702 0.198-1.394 0.539-2.078v0c0.568-1.137 1.353-1.899 2.354-2.283 1.01-0.388 2.108-0.285 3.294 0.307v0zM259.312 203.528l-1.033 2.069-11.291-5.639 0.975-1.951 2.627 1.165z" fill="#000000" data-fill-palette-color="secondary"></path><path d="M254.697 181.08v0c0.28-0.826 0.698-1.524 1.254-2.092 0.55-0.571 1.188-0.969 1.914-1.195v0l-5.612-1.898 0.735-2.172 15.981 5.406-0.699 2.066-1.694-0.499c0.436 0.611 0.716 1.324 0.84 2.138 0.12 0.805 0.039 1.627-0.245 2.466v0c-0.36 1.063-0.945 1.908-1.756 2.533-0.807 0.634-1.758 1.019-2.854 1.155-1.096 0.136-2.246 0.001-3.45-0.407v0c-1.217-0.412-2.22-1.004-3.008-1.778-0.788-0.773-1.31-1.657-1.567-2.65-0.252-0.985-0.199-2.009 0.161-3.073zM265.485 184.205v0c0.267-0.788 0.282-1.561 0.046-2.32-0.236-0.758-0.684-1.409-1.342-1.953v0l-3.892-1.316c-0.866 0.028-1.614 0.275-2.243 0.74-0.635 0.463-1.086 1.089-1.352 1.878v0c-0.245 0.724-0.275 1.424-0.09 2.101 0.179 0.674 0.546 1.277 1.102 1.807 0.554 0.537 1.266 0.953 2.138 1.248v0c0.852 0.288 1.661 0.387 2.427 0.296 0.764-0.084 1.428-0.338 1.992-0.761 0.564-0.423 0.969-0.997 1.214-1.72z" fill="#000000" data-fill-palette-color="secondary"></path></g></svg></g></svg></g></svg></g><g></g></svg></g><defs></defs></svg><rect width="279.72" height="279.72" fill="none" stroke="none" visibility="hidden"></rect></g></svg></g></svg>